<svg xmlns="http://www.w3.org/2000/svg" width="107" height="60" viewBox="0 0 107 60">
    <defs>
        <clipPath id="486371f2sa">
            <path data-name="사각형 8541" style="fill:none" d="M0 0h107v51.932H0z"/>
        </clipPath>
    </defs>
    <path data-name="사각형 8538" style="fill:none" d="M0 0h107v60H0z"/>
    <g data-name="그룹 12118">
        <g data-name="그룹 12116" style="clip-path:url(#486371f2sa)" transform="translate(0 4)">
            <path data-name="패스 6187" d="M43.885 11a.6.6 0 0 1-.209-.2.575.575 0 0 1-.08-.319v-6a.86.86 0 0 0-1.72 0v6.008a2.346 2.346 0 0 0 .166.952 1.378 1.378 0 0 0 .473.59 1.845 1.845 0 0 0 .75.3 5.546 5.546 0 0 0 .995.08h.258v-1.278a1.809 1.809 0 0 1-.338-.031.875.875 0 0 1-.3-.1" style="fill:#171831"/>
            <path data-name="패스 6188" d="M53.155 7.38a.738.738 0 0 1 .147-.018h2.138a.639.639 0 1 0 0-1.278H52.8a1.793 1.793 0 0 0-.541.08 1.311 1.311 0 0 0-.461.251 1.254 1.254 0 0 0-.325.443 1.563 1.563 0 0 0-.123.651v.811a1.3 1.3 0 0 0 .19.774.967.967 0 0 0 .522.356l2.138.6c.033.017.068.035.1.056s.055.063.055.129v.528a.365.365 0 0 1-.1.27.437.437 0 0 1-.319.1h-1.948a.639.639 0 1 0 0 1.278h2.064a3.108 3.108 0 0 0 1.051-.148 1.577 1.577 0 0 0 .614-.375 1.163 1.163 0 0 0 .289-.5 2.084 2.084 0 0 0 .073-.535v-.823a1.475 1.475 0 0 0-.024-.258.839.839 0 0 0-.1-.27.857.857 0 0 0-.227-.246 1.276 1.276 0 0 0-.381-.185l-1.99-.553a.793.793 0 0 1-.209-.1.256.256 0 0 1-.074-.215v-.645c0-.106.029-.166.086-.178" style="fill:#171831"/>
            <path data-name="패스 6189" d="M70.838 6.084H69.02a2.877 2.877 0 0 0-.707.08 1.286 1.286 0 0 0-.534.27 1.183 1.183 0 0 0-.338.522 2.549 2.549 0 0 0-.117.836v3.76a.86.86 0 0 0 1.72 0V7.718c0-.164.035-.264.105-.3a.427.427 0 0 1 .2-.055h1.487a.639.639 0 0 0 0-1.278" style="fill:#171831"/>
            <path data-name="패스 6190" d="M28.719 7.841a1.139 1.139 0 0 0-.173-.559 2.466 2.466 0 0 0-.461-.572 2.586 2.586 0 0 0-.663-.448 1.765 1.765 0 0 0-.768-.178h-5.873a.639.639 0 1 0 0 1.278v4.177a.872.872 0 1 0 1.744 0V7.362h1.352v4.208a.841.841 0 1 0 1.683 0V7.362h.787a.647.647 0 0 1 .5.19.62.62 0 0 1 .178.436v3.574a.85.85 0 1 0 1.7 0v-.07z" style="fill:#171831"/>
            <path data-name="패스 6191" d="M59.225 4.486a.86.86 0 1 0-1.72 0v1.6h-.4a.639.639 0 0 0 0 1.278h.4v3.134a2.355 2.355 0 0 0 .166.952 1.383 1.383 0 0 0 .473.59 1.862 1.862 0 0 0 .749.294 5.562 5.562 0 0 0 .995.08h.258v-1.281a1.8 1.8 0 0 1-.337-.031.92.92 0 0 1-.295-.1.6.6 0 0 1-.209-.2.581.581 0 0 1-.08-.32V7.361h.921V6.083h-.921z" style="fill:#171831"/>
            <path data-name="패스 6192" d="M77.431 6.91a.845.845 0 0 0-.669-.826.825.825 0 0 0-.352 0 .844.844 0 0 0-.65.651l-.014.09-.26 1.667q-.19 1.229-.362 2.421h-1.057a.764.764 0 0 1-.51-.123.542.542 0 0 1-.129-.406V6.943a.86.86 0 0 0-1.719 0v3.306a3.251 3.251 0 0 0 .111.915 1.426 1.426 0 0 0 .332.6 1.247 1.247 0 0 0 .546.325 2.652 2.652 0 0 0 .768.1h1.487l-.111.774a.707.707 0 0 1-.239.5 1.041 1.041 0 0 1-.559.117h-1.69a.645.645 0 0 0 0 1.29h1.836a2.525 2.525 0 0 0 .934-.16 2.139 2.139 0 0 0 .688-.424 2.164 2.164 0 0 0 .455-.6 2.449 2.449 0 0 0 .233-.694q.284-1.721.547-3.471c.132-.874.254-1.682.384-2.531v-.077" style="fill:#171831"/>
            <path data-name="패스 6193" d="M40.934 6.852a1.271 1.271 0 0 0-.319-.462 1.114 1.114 0 0 0-.449-.238 1.921 1.921 0 0 0-.509-.069h-3.981v7.945a.842.842 0 0 0 1.683 0v-1.617h1.191a3.63 3.63 0 0 0 1.346-.2 1.853 1.853 0 0 0 .756-.515 1.548 1.548 0 0 0 .332-.696 3.9 3.9 0 0 0 .073-.737v-2.68a1.877 1.877 0 0 0-.123-.731m-1.444 3.372a1.249 1.249 0 0 1-.106.561.8.8 0 0 1-.278.327.826.826 0 0 1-.376.131 3.4 3.4 0 0 1-.351.02h-1.02a.13.13 0 0 1-.129-.13V7.361a.128.128 0 0 1 .129-.127h1.695a.378.378 0 0 1 .373.169.671.671 0 0 1 .063.3z" style="fill:#171831"/>
            <path data-name="패스 6194" d="M49.634 9.978a.792.792 0 0 0 .651-.307 1.087 1.087 0 0 0 .245-.7V7.3a1.281 1.281 0 0 0-.282-.946 1.186 1.186 0 0 0-.848-.27h-2.617a1.753 1.753 0 0 0-1.18.343 1.524 1.524 0 0 0-.393 1.192v2.138c0 .394.011.754.031 1.082a1.888 1.888 0 0 0 .233.841 1.321 1.321 0 0 0 .639.541 3.185 3.185 0 0 0 1.235.19H49.9a.633.633 0 0 0 0-1.265h-2.343a.943.943 0 0 1-.381-.062.416.416 0 0 1-.27-.362 2.239 2.239 0 0 1-.013-.227v-.517zm-2.869-1.265v-1c0-.249.073-.4.217-.448a.993.993 0 0 1 .317-.049h1.376c.056 0 .224 0 .274.132a.433.433 0 0 1 .026.156v.958a.419.419 0 0 1-.077.239.314.314 0 0 1-.272.135h-1.733a.128.128 0 0 1-.128-.128" style="fill:#171831"/>
            <path data-name="패스 6195" d="M66.432 7.5a1.535 1.535 0 0 0-.332-.7 1.875 1.875 0 0 0-.756-.517 3 3 0 0 0-.9-.187l-.221-.016h-1.194l-.221.016a3 3 0 0 0-.9.187 1.875 1.875 0 0 0-.756.517 1.548 1.548 0 0 0-.332.694 3.884 3.884 0 0 0-.073.738v2.056a3.922 3.922 0 0 0 .073.708 1.548 1.548 0 0 0 .332.694 1.853 1.853 0 0 0 .756.515 3.025 3.025 0 0 0 .9.188l.221.015h1.192l.221-.015a3.032 3.032 0 0 0 .9-.188 1.853 1.853 0 0 0 .756-.515 1.535 1.535 0 0 0 .334-.69 3.821 3.821 0 0 0 .074-.737V8.235a3.807 3.807 0 0 0-.074-.738m-1.493 2.727a1.249 1.249 0 0 1-.106.561.8.8 0 0 1-.278.327.826.826 0 0 1-.376.131 3.4 3.4 0 0 1-.351.02h-.406a3.381 3.381 0 0 1-.351-.02.822.822 0 0 1-.376-.131.8.8 0 0 1-.278-.327 1.236 1.236 0 0 1-.106-.561V8.271a1.246 1.246 0 0 1 .106-.562.817.817 0 0 1 .278-.326.837.837 0 0 1 .376-.13 3.326 3.326 0 0 1 .351-.019h.406a3.326 3.326 0 0 1 .351.019.837.837 0 0 1 .376.13.817.817 0 0 1 .278.326 1.259 1.259 0 0 1 .106.562z" style="fill:#171831"/>
            <path data-name="패스 6196" d="M34.826 7.656a1.888 1.888 0 0 0-.233-.841 1.312 1.312 0 0 0-.639-.541 3.185 3.185 0 0 0-1.235-.19H30.17a.633.633 0 1 0 0 1.265h2.34a.926.926 0 0 1 .381.062.464.464 0 0 1 .2.153.455.455 0 0 1 .073.209 2.222 2.222 0 0 1 .01.227v.516h-2.74a.8.8 0 0 0-.652.307 1.1 1.1 0 0 0-.245.7v1.671a1.282 1.282 0 0 0 .282.946 1.186 1.186 0 0 0 .848.27h2.617a1.748 1.748 0 0 0 1.18-.344 1.521 1.521 0 0 0 .393-1.192V8.737q0-.59-.031-1.081M33.3 10.777c0 .249-.073.4-.217.448a1.017 1.017 0 0 1-.317.049h-1.374c-.055 0-.224 0-.274-.132a.46.46 0 0 1-.026-.156v-.958a.413.413 0 0 1 .078-.239.311.311 0 0 1 .271-.136h1.733a.129.129 0 0 1 .128.129z" style="fill:#171831"/>
            <path data-name="패스 6197" d="M107 3.745a9.92 9.92 0 0 1-3.276 3.546 2.565 2.565 0 0 1 2.444 1.226s-1.143-.387-1.751.163a4.911 4.911 0 0 1 2.08 3.951 39.982 39.982 0 0 0 .356 4.4c-.05-.35-1.426-1.436-2.169-2.125a5.658 5.658 0 0 1-1.571-2.636 4.983 4.983 0 0 1 .125 2.983 9.793 9.793 0 0 1-2.561 4.48 27.511 27.511 0 0 1-2.127 2.154 9.364 9.364 0 0 0 .516-4.13c-.14-1.66-.369-3.566.7-5.391 0 0-1.553 3.285-8.069 2.683a62.79 62.79 0 0 0-3.441-.184s1.9-.567 4.275-3.356A6.707 6.707 0 0 1 98 9.275a8.321 8.321 0 0 1-5.278-2.823 10.19 10.19 0 0 0-3.936-2.531s3.9.075 4.764.061c1.195-.019 4.1.134 5.793 1.881a6.227 6.227 0 0 1-1.7-3.736A5.084 5.084 0 0 0 96.609 0s.686.43 1.555.863c1.5.75 3.766 1.748 4.146 4.7 0 0 .742-.458.619-1.922a2.55 2.55 0 0 1 .539 3.149s1.041-.508 2.5-3c0 0 .476-1.021 1.031-.042" style="fill:#b1201a"/>
            <path data-name="패스 6198" d="M96.558 17.194H83.247a5.079 5.079 0 0 0-4.193 1.888 5.257 5.257 0 0 0-3.946-1.888H0v9.963l4.667 2.667 2.258 11.952 6.275 2.272s1.308-.389 3.323-.93l.209 1.154v.023l.044.244.635 3.461a4.958 4.958 0 0 0 5.065 3.934h52.898a3.7 3.7 0 0 0 3.609-2.978l.258-1.4a5.33 5.33 0 0 0 .067-.5l.538-4c1.113.312 2.19.616 2.991.847a3.477 3.477 0 0 0 .966.14 3.781 3.781 0 0 0 1.315-.245c1.309-.479 4.162-1.488 5.885-2.133a6.2 6.2 0 0 0 4.075-6.241v-3.756a7.147 7.147 0 0 0-1.225-4.018l2.705-1.587z" style="fill:#171831"/>
            <path data-name="패스 6199" d="M35.08 19.45c-2.154-.005-4.257-.012-6.412-.02h-.023a3.5 3.5 0 0 0-3.2 3.642l-.183 8.737c0 2.309 1.524 3.327 3.054 3.116 2.167-.3 4.369-.583 6.552-.8a3.723 3.723 0 0 0 3.265-3.556q.052-3.928.1-7.856a3.168 3.168 0 0 0-3.153-3.263m-.57 4.889-.095 5.8a.813.813 0 0 1-.719.789c-1.328.108-4.046.367-4.074.369a.68.68 0 0 1-.649-.726l.139-6.907a.786.786 0 0 1 .727-.786c1.15-.036 5.033-.134 5.557-.146 0 0-.885.09-.886 1.6" style="fill:#c7cd38"/>
            <path data-name="패스 6200" d="M50.111 29.1a3.162 3.162 0 0 0 2.072-2.959l-.02-3.491A3.193 3.193 0 0 0 49 19.465q-4.324 0-8.65-.006-.08 7.124-.157 14.246c1.245-.074 2.507-.132 3.754-.172l.025-4.2 2.015-.035 2.684 4.167c1.417.005 2.852.032 4.27.081a1649.56 1649.56 0 0 0-2.828-4.443m-1.647-5.213v1.545a.727.727 0 0 1-.726.724c-1.185 0-3.692.03-3.752.031l.021-3.584 5.324-.016s-.867.086-.867 1.3" style="fill:#ffd400"/>
            <path data-name="패스 6201" d="M75.108 19.4c-.01 0-5.966.027-8.935.036l.3 15.245c3.01.4 6.035.9 8.993 1.473.7.144 3.01.053 3.01-3.292l-.175-9.492c-.039-2.2-1.469-3.976-3.192-3.97m-1.027 12.77c-.088-.01-4.615-.591-5.008-.642a1.414 1.414 0 0 0 1-1.385c0-1.117-.113-5.534-.113-5.534a1.841 1.841 0 0 0-.9-1.649c.649.024 3.888.147 4.853.188a.822.822 0 0 1 .724.836l.153 7.441a.668.668 0 0 1-.714.745" style="fill:#c2add5"/>
            <path data-name="패스 6202" d="M58.678 30.644c-.512-.022-1.023-.047-1.535-.071a1.228 1.228 0 0 0 .95-1.32l-.126-9.8h-3.679q.059 7.069.116 14.142c3.65.164 7.33.481 10.943.932l-.065-3.39c-2.185-.2-4.4-.374-6.6-.5" style="fill:#23b5ee"/>
            <path data-name="패스 6203" d="M94.274 23.994v-4.547h-11c-1.14 0-3.072 1.223-3.072 4.138.017.864.034 1.552.051 2.416.04 2.2.636 3.142 2.248 3.819 1.376.58 4.364 1.368 6.033 1.984a.943.943 0 0 1 .677.907c0 .269.005.49.008.759 0 .81-.5.915-.75.876l-8.1-1.269.07 4.028 9.397 1.795c1.848.353 2.96-1.572 2.96-3.521v-2.988c0-2.674-.539-3.748-2.09-4.307-1.4-.5-4.3-1.3-5.672-1.881-.828-.352-1.13-.629-1.137-1.116v-.418a1.111 1.111 0 0 0-.967-1.107z" style="fill:#f18254"/>
            <path data-name="패스 6204" d="M20.677 19.4 18.4 28.944l-1.928-9.571-3.372-.021L10.889 29.9l-2-10.572-6.607-.052v5.446s3.241-.326 4.862-.5c0 0-1.142.427-.831 2.087l2.374 12.739 3.8-.987 2.16-10.2 1.857 9.254 3.879-.82 4.157-16.874z" style="fill:#e4649f"/>
            <path data-name="패스 6205" d="M46.872 42.852a1.3 1.3 0 0 0-1.521-1.136H44.33a1.306 1.306 0 0 0-1.52 1.136l-1.533 5.687a.85.85 0 0 0 .859 1.045.878.878 0 0 0 .86-.639l.27-1.046h3.063l.253 1.033a.881.881 0 0 0 .867.652.854.854 0 0 0 .865-1.038zm-3.248 3.693.782-3.011c.076-.3.185-.445.435-.445s.358.142.434.445L46 46.545zm10.389-4.829h-4.534a.688.688 0 1 0 0 1.373h1.371v5.647a.9.9 0 0 0 1.792 0v-5.647h1.371a.688.688 0 1 0 0-1.373m6.294 0h-2.1a2.128 2.128 0 0 0-2.366 2.063v3.742a2.128 2.128 0 0 0 2.366 2.063h2.1a2.128 2.128 0 0 0 2.367-2.063v-3.742a2.128 2.128 0 0 0-2.367-2.063m.592 5.758c0 .469-.323.75-.861.75h-1.56c-.538 0-.86-.281-.86-.75v-3.648c0-.469.322-.75.86-.75h1.56c.538 0 .861.281.861.75z" style="fill:#fff"/>
            <path data-name="패스 6206" d="M30.787 41.716h-2.773a.828.828 0 0 0-.828.828v6.2a.827.827 0 0 0 .7.829.808.808 0 0 0 .914-.8v-2.249h1.26l1.389 2.63a.754.754 0 1 0 1.361-.648L31.67 46.4a1.64 1.64 0 0 0 1.216-1.693v-1.174c0-1.155-.765-1.817-2.1-1.817m.483 2.737a.56.56 0 0 1-.633.642H28.8v-1.951h1.835a.56.56 0 0 1 .633.642z" style="fill:#fff"/>
            <path data-name="패스 6207" d="M67.925 41.716h-2.773a.828.828 0 0 0-.828.828v6.2a.827.827 0 0 0 .7.829.808.808 0 0 0 .914-.8v-2.249H67.2l1.389 2.63a.754.754 0 1 0 1.361-.648L68.808 46.4a1.64 1.64 0 0 0 1.216-1.693v-1.174c0-1.155-.765-1.817-2.1-1.817m.483 2.737a.56.56 0 0 1-.633.642H65.94v-1.951h1.835a.56.56 0 0 1 .633.642z" style="fill:#fff"/>
            <path data-name="패스 6208" d="M36.72 43.2h2.545a.742.742 0 1 0 0-1.483H36.19a1.318 1.318 0 0 0-1.509 1.463v5.17a1.236 1.236 0 0 0 1.236 1.236h3.348a.741.741 0 1 0 0-1.483H36.4v-1.926h2.49a.732.732 0 1 0 0-1.464H36.4V43.5c0-.243.065-.306.317-.306" style="fill:#fff"/>
            <path data-name="패스 6209" d="M25.249 48.267H22.53a.916.916 0 0 1-1-.737l-.62-3.606c-.083-.486.206-.778.771-.778h2.807a.62.62 0 0 0 .653-.711.887.887 0 0 0-.866-.719h-3.117c-1.483 0-2.346.889-2.114 2.158l.679 3.7a2.638 2.638 0 0 0 2.758 2.011h2.968a.584.584 0 0 0 .63-.656.835.835 0 0 0-.827-.662" style="fill:#fff"/>
            <path data-name="패스 6210" d="m76.24 45.629-2.467-1.253c-.28-.144-.284-.366-.242-.628l.034-.214a.477.477 0 0 1 .457-.389h2.686a.915.915 0 0 0 .824-.635l.021-.076a.642.642 0 0 0-.589-.717h-3.588a1.392 1.392 0 0 0-1.333 1.151L71.872 44a1.228 1.228 0 0 0 .742 1.533l2.459 1.235c.273.149.269.391.227.633l-.087.5a.466.466 0 0 1-.447.367h-2.84a.816.816 0 0 0-.789.651V48.94a.563.563 0 0 0 .589.646h3.653a1.359 1.359 0 0 0 1.3-1.058l.258-1.4a1.169 1.169 0 0 0-.694-1.5" style="fill:#fff"/>
        </g>
    </g>
</svg>
