<svg xmlns="http://www.w3.org/2000/svg" style="display: none;">

  <symbol id="caret-left-fill" viewBox="0 0 16 16">
    <path d="m3.86 8.753 5.482 4.796c.646.566 1.658.106 1.658-.753V3.204a1 1 0 0 0-1.659-.753l-5.48 4.796a1 1 0 0 0 0 1.506z"/>
  </symbol>

  <symbol id="caret-up-fill" viewBox="0 0 16 16">
    <path d="m7.247 4.86-4.796 5.481c-.566.647-.106 1.659.753 1.659h9.592a1 1 0 0 0 .753-1.659l-4.796-5.48a1 1 0 0 0-1.506 0z"/>
  </symbol>

  <symbol id="camera-fill" viewBox="0 0 16 16">
    <path d="M10.5 8.5a2.5 2.5 0 1 1-5 0 2.5 2.5 0 0 1 5 0"/>
    <path d="M2 4a2 2 0 0 0-2 2v6a2 2 0 0 0 2 2h12a2 2 0 0 0 2-2V6a2 2 0 0 0-2-2h-1.172a2 2 0 0 1-1.414-.586l-.828-.828A2 2 0 0 0 9.172 2H6.828a2 2 0 0 0-1.414.586l-.828.828A2 2 0 0 1 3.172 4zm.5 2a.5.5 0 1 1 0-1 .5.5 0 0 1 0 1m9 2.5a3.5 3.5 0 1 1-7 0 3.5 3.5 0 0 1 7 0"/>
  </symbol>

  <symbol id="download" viewBox="0 0 16 16">
    <path d="M.5 9.9a.5.5 0 0 1 .5.5v2.5a1 1 0 0 0 1 1h12a1 1 0 0 0 1-1v-2.5a.5.5 0 0 1 1 0v2.5a2 2 0 0 1-2 2H2a2 2 0 0 1-2-2v-2.5a.5.5 0 0 1 .5-.5"/>
    <path d="M7.646 11.854a.5.5 0 0 0 .708 0l3-3a.5.5 0 0 0-.708-.708L8.5 10.293V1.5a.5.5 0 0 0-1 0v8.793L5.354 8.146a.5.5 0 1 0-.708.708z"/>
  </symbol>

  <symbol id="collection-fill" viewBox="0 0 16 16">
    <path d="M0 13a1.5 1.5 0 0 0 1.5 1.5h13A1.5 1.5 0 0 0 16 13V6a1.5 1.5 0 0 0-1.5-1.5h-13A1.5 1.5 0 0 0 0 6zM2 3a.5.5 0 0 0 .5.5h11a.5.5 0 0 0 0-1h-11A.5.5 0 0 0 2 3m2-2a.5.5 0 0 0 .5.5h7a.5.5 0 0 0 0-1h-7A.5.5 0 0 0 4 1"/>
  </symbol>

  <symbol id="person-fill" viewBox="0 0 16 16">
    <path d="M3 14s-1 0-1-1 1-4 6-4 6 3 6 4-1 1-1 1zm5-6a3 3 0 1 0 0-6 3 3 0 0 0 0 6"/>
  </symbol>

</svg>